<svg width="44" height="44" viewBox="0 0 44 44" fill="none" xmlns="http://www.w3.org/2000/svg">
<path d="M14.1264 3.34772L13.9466 2.36403C13.4033 2.46337 13.0434 2.98431 13.1427 3.52759L14.1264 3.34772ZM22.7714 1.76694L23.7551 1.58707C23.6558 1.04379 23.1348 0.683907 22.5916 0.783248L22.7714 1.76694ZM16.8932 18.479L17.0731 19.4627C17.6164 19.3633 17.9763 18.8424 17.8769 18.2991L16.8932 18.479ZM1.76682 21.2449L1.58694 20.2612C1.32605 20.3089 1.0948 20.4583 0.944053 20.6765C0.793308 20.8947 0.73542 21.1639 0.783125 21.4248L1.76682 21.2449ZM3.34759 29.8899L2.3639 30.0698C2.46324 30.6131 2.98419 30.973 3.52747 30.8736L3.34759 29.8899ZM18.474 27.124L19.4577 26.9441C19.3584 26.4008 18.8374 26.041 18.2941 26.1403L18.474 27.124ZM21.2399 42.2503L20.2562 42.4302C20.3556 42.9734 20.8765 43.3333 21.4198 43.234L21.2399 42.2503ZM29.8849 40.6695L30.0648 41.6532C30.3257 41.6055 30.557 41.4561 30.7077 41.2379C30.8585 41.0197 30.9163 40.7505 30.8686 40.4896L29.8849 40.6695ZM27.119 25.5432L26.9392 24.5595C26.6783 24.6072 26.447 24.7566 26.2963 24.9748C26.1455 25.193 26.0876 25.4622 26.1353 25.7231L27.119 25.5432ZM42.2502 22.7764L42.43 23.7601C42.9733 23.6608 43.3332 23.1398 43.2339 22.5966L42.2502 22.7764ZM40.6694 14.1314L41.6531 13.9515C41.6054 13.6906 41.456 13.4594 41.2378 13.3086C41.0196 13.1579 40.7504 13.1 40.4895 13.1477L40.6694 14.1314ZM25.5383 16.8982L24.5546 17.0781C24.6539 17.6213 25.1749 17.9812 25.7181 17.8819L25.5383 16.8982ZM14.3063 4.33141L22.9513 2.75063L22.5916 0.783248L13.9466 2.36403L14.3063 4.33141ZM17.8769 18.2991L15.1101 3.16784L13.1427 3.52759L15.9096 18.6588L17.8769 18.2991ZM1.94669 22.2286L17.0731 19.4627L16.7134 17.4953L1.58694 20.2612L1.94669 22.2286ZM4.33128 29.7101L2.75051 21.065L0.783125 21.4248L2.3639 30.0698L4.33128 29.7101ZM18.2941 26.1403L3.16772 28.9062L3.52747 30.8736L18.6539 28.1077L18.2941 26.1403ZM22.2236 42.0704L19.4577 26.9441L17.4903 27.3039L20.2562 42.4302L22.2236 42.0704ZM29.7051 39.6858L21.0601 41.2666L21.4198 43.234L30.0648 41.6532L29.7051 39.6858ZM26.1353 25.7231L28.9013 40.8494L30.8686 40.4896L28.1027 25.3633L26.1353 25.7231ZM42.0703 21.7927L26.9392 24.5595L27.2989 26.5269L42.43 23.7601L42.0703 21.7927ZM39.6857 14.3113L41.2665 22.9563L43.2339 22.5966L41.6531 13.9515L39.6857 14.3113ZM25.7181 17.8819L40.8493 15.1151L40.4895 13.1477L25.3584 15.9145L25.7181 17.8819ZM21.7878 1.94681L24.5546 17.0781L26.522 16.7183L23.7551 1.58707L21.7878 1.94681Z" fill="#302A3E"/>
</svg>
