<svg width="16" height="16" viewBox="0 0 16 16" fill="none" xmlns="http://www.w3.org/2000/svg">
<path d="M7.29378 4.05329C7.52762 4.01745 7.76388 3.99962 8.00045 3.99996C10.1204 3.99996 12.1138 5.52663 13.2738 7.99996C13.0964 8.37636 12.896 8.74149 12.6738 9.09329C12.6032 9.2025 12.5662 9.32995 12.5671 9.45996C12.5686 9.60545 12.6176 9.74646 12.7068 9.86148C12.7959 9.97649 12.9202 10.0592 13.0607 10.097C13.2012 10.1347 13.3502 10.1255 13.485 10.0707C13.6197 10.0158 13.7329 9.91843 13.8071 9.79329C14.1177 9.30525 14.3875 8.7924 14.6138 8.25996C14.6495 8.17678 14.668 8.08718 14.668 7.99663C14.668 7.90608 14.6495 7.81648 14.6138 7.73329C13.2671 4.60663 10.7338 2.66663 8.00045 2.66663C7.68756 2.66505 7.37517 2.69183 7.06712 2.74663C6.97957 2.76151 6.89581 2.79349 6.82062 2.84075C6.74543 2.888 6.68029 2.9496 6.62891 3.02203C6.57752 3.09446 6.54091 3.1763 6.52116 3.26288C6.50141 3.34946 6.4989 3.43908 6.51378 3.52663C6.52867 3.61418 6.56065 3.69793 6.6079 3.77312C6.65515 3.84831 6.71675 3.91346 6.78918 3.96484C6.86161 4.01622 6.94345 4.05283 7.03003 4.07258C7.11661 4.09234 7.20623 4.09484 7.29378 4.07996V4.05329ZM2.47378 1.52663C2.41162 1.46447 2.33783 1.41516 2.25662 1.38152C2.1754 1.34788 2.08836 1.33057 2.00045 1.33057C1.91254 1.33057 1.8255 1.34788 1.74428 1.38152C1.66307 1.41516 1.58927 1.46447 1.52712 1.52663C1.40158 1.65216 1.33105 1.82243 1.33105 1.99996C1.33105 2.1775 1.40158 2.34776 1.52712 2.47329L3.59378 4.53329C2.65083 5.44098 1.90035 6.52929 1.38712 7.73329C1.35041 7.8174 1.33146 7.90819 1.33146 7.99996C1.33146 8.09173 1.35041 8.18252 1.38712 8.26663C2.73378 11.3933 5.26712 13.3333 8.00045 13.3333C9.19852 13.325 10.3683 12.9683 11.3671 12.3066L13.5271 14.4733C13.5891 14.5358 13.6628 14.5854 13.7441 14.6192C13.8253 14.6531 13.9124 14.6705 14.0004 14.6705C14.0885 14.6705 14.1756 14.6531 14.2568 14.6192C14.3381 14.5854 14.4118 14.5358 14.4738 14.4733C14.5363 14.4113 14.5859 14.3376 14.6197 14.2563C14.6536 14.1751 14.671 14.088 14.671 14C14.671 13.912 14.6536 13.8248 14.6197 13.7436C14.5859 13.6623 14.5363 13.5886 14.4738 13.5266L2.47378 1.52663ZM6.71378 7.65329L8.34712 9.28663C8.23444 9.31894 8.11766 9.33466 8.00045 9.33329C7.64683 9.33329 7.30769 9.19282 7.05764 8.94277C6.80759 8.69272 6.66712 8.35358 6.66712 7.99996C6.66575 7.88275 6.68147 7.76597 6.71378 7.65329ZM8.00045 12C5.88045 12 3.88712 10.4733 2.73378 7.99996C3.16451 7.04913 3.77583 6.19101 4.53378 5.47329L5.71378 6.66663C5.43661 7.17249 5.33094 7.75459 5.41262 8.3256C5.4943 8.89661 5.75893 9.42574 6.1668 9.83361C6.57467 10.2415 7.1038 10.5061 7.67481 10.5878C8.24582 10.6695 8.82792 10.5638 9.33378 10.2866L10.3938 11.3333C9.66784 11.7605 8.84273 11.9904 8.00045 12Z" fill="#302A3E" fill-opacity="0.3"/>
</svg>
