<svg width="19" height="19" viewBox="0 0 19 19" fill="none" xmlns="http://www.w3.org/2000/svg">
<rect x="0.591797" y="0.387085" width="17.8838" height="17.8838" rx="8.94191" transform="rotate(0.214815 0.591797 0.387085)" fill="#302A3E"/>
<path fill-rule="evenodd" clip-rule="evenodd" d="M13.7319 4.7301H10.466C10.1094 4.7301 9.93087 5.16118 10.183 5.41329L11.27 6.50033L8.95383 8.81652C8.65232 9.11803 8.65232 9.60687 8.95383 9.90838C9.25534 10.2099 9.74417 10.2099 10.0457 9.90838L12.3619 7.59218L13.449 8.67926C13.7011 8.93137 14.1321 8.75281 14.1321 8.39627V5.1303C14.1321 4.90928 13.953 4.7301 13.7319 4.7301ZM8.72747 5.24483C9.15386 5.24483 9.49953 5.59049 9.49953 6.01689C9.49953 6.44328 9.15386 6.78894 8.72747 6.78894H7.44071C6.87218 6.78894 6.4113 7.24982 6.4113 7.81835V11.4213C6.4113 11.9898 6.87218 12.4507 7.44071 12.4507H11.0436C11.6122 12.4507 12.073 11.9898 12.073 11.4213V10.1345C12.073 9.70812 12.4187 9.36246 12.8451 9.36246C13.2715 9.36246 13.6172 9.70812 13.6172 10.1345V11.4213C13.6172 12.8426 12.465 13.9948 11.0436 13.9948H7.44071C6.01939 13.9948 4.86719 12.8426 4.86719 11.4213V7.81835C4.86719 6.39703 6.01939 5.24483 7.44071 5.24483H8.72747Z" fill="white"/>
</svg>
