<svg width="134" height="32" viewBox="0 0 134 32" fill="none" xmlns="http://www.w3.org/2000/svg">
<path d="M4.65382 12.3219C3.91286 12.2298 3.27426 11.9951 2.73803 11.6181C2.2018 11.241 1.805 10.7637 1.54764 10.1862C1.29143 9.59946 1.20189 8.95817 1.27902 8.26237L1.95978 8.34703C2.04732 7.64312 2.26748 7.04505 2.62026 6.55283C2.98345 6.05249 3.43875 5.68118 3.98617 5.43888C4.54286 5.19774 5.15463 5.11864 5.82149 5.20157C6.48835 5.28451 7.05748 5.51047 7.52888 5.87947C8.00954 6.24962 8.36003 6.72115 8.58034 7.29405C8.81107 7.85884 8.88266 8.4932 8.79512 9.19711C8.70873 9.89176 8.4741 10.4927 8.09123 11C7.70952 11.4981 7.2218 11.8653 6.62806 12.1019C6.03433 12.3384 5.37625 12.4117 4.65382 12.3219ZM4.80932 11.0715C5.27242 11.1291 5.68741 11.082 6.05429 10.9301C6.43159 10.7701 6.73937 10.5262 6.97764 10.1985C7.22518 9.87185 7.37717 9.48162 7.43361 9.02778C7.49005 8.57395 7.4377 8.16301 7.27655 7.79498C7.12582 7.41883 6.88657 7.11162 6.55881 6.87335C6.24146 6.62697 5.85123 6.47498 5.38813 6.41739C4.90651 6.35749 4.46779 6.40638 4.07197 6.56407C3.6773 6.7125 3.35156 6.94945 3.09477 7.27491C2.84839 7.59226 2.69697 7.97786 2.64053 8.43169C2.58409 8.88553 2.63587 9.3011 2.79586 9.67839C2.96511 10.0568 3.22231 10.371 3.56745 10.6208C3.91374 10.8614 4.3277 11.0116 4.80932 11.0715ZM1.27902 8.26237L1.48815 6.69419C1.63334 5.60243 2.05875 4.63957 2.7644 3.80561C3.47931 2.97281 4.50172 2.35225 5.83161 1.94392L8.573 1.1139C8.76746 1.06284 8.93533 1.07431 9.07661 1.14832C9.21904 1.21305 9.3123 1.33281 9.3564 1.50759C9.39935 1.69163 9.39309 1.85545 9.33761 1.99903C9.29255 2.1345 9.1427 2.24284 8.88806 2.32403L5.90711 3.26534C5.22191 3.48109 4.64557 3.76681 4.1781 4.12251C3.71063 4.4782 3.34334 4.89808 3.07622 5.38215C2.81952 5.85811 2.64562 6.38669 2.55453 6.96789L2.34878 8.39541L1.27902 8.26237ZM14.0311 13.4881C13.2624 13.3925 12.5972 13.1452 12.0355 12.7461C11.4842 12.339 11.0729 11.827 10.8016 11.2101C10.5407 10.5851 10.4569 9.89755 10.5502 9.14733C10.6447 8.38785 10.8851 7.74057 11.2714 7.20549C11.6681 6.6623 12.1692 6.26375 12.7745 6.00985C13.3809 5.74668 14.05 5.66059 14.7817 5.75159C15.5041 5.84144 16.1045 6.0807 16.5829 6.46937C17.0624 6.84878 17.4013 7.33768 17.5996 7.93607C17.8084 8.52634 17.8672 9.18733 17.7762 9.91902C17.7544 10.095 17.6757 10.2357 17.5403 10.3411C17.4061 10.4373 17.2464 10.4739 17.0611 10.4508L11.4623 9.75453L11.6005 8.64309L17.1577 9.33421L16.5397 9.65238C16.588 9.18813 16.5467 8.76445 16.4156 8.38135C16.2857 7.98898 16.0719 7.66613 15.7742 7.41279C15.4766 7.15945 15.0962 7.00398 14.6331 6.94639C14.1051 6.88073 13.6369 6.94006 13.2284 7.12439C12.8291 7.30986 12.5069 7.59427 12.2617 7.97761C12.0177 8.35168 11.864 8.79343 11.8006 9.30283C11.7373 9.81224 11.7966 10.2805 11.9786 10.7075C12.1606 11.1346 12.441 11.4892 12.8197 11.7715C13.1985 12.0537 13.6518 12.2277 14.1797 12.2933C14.4669 12.329 14.7649 12.3144 15.074 12.2493C15.3935 12.1762 15.6545 12.0817 15.857 11.9658C16.0086 11.8812 16.1631 11.8487 16.3206 11.8683C16.4884 11.8797 16.6262 11.9439 16.734 12.0608C16.8741 12.2193 16.9385 12.3825 16.927 12.5503C16.9155 12.7182 16.8236 12.8525 16.6512 12.9534C16.3052 13.1643 15.8862 13.3191 15.3942 13.4178C14.9116 13.5177 14.4572 13.5411 14.0311 13.4881ZM21.6806 14.4959C21.236 14.4406 20.8296 14.343 20.4614 14.2032C20.1024 14.0645 19.7799 13.8974 19.4938 13.7019C19.2182 13.4983 18.9813 13.2855 18.7832 13.0633C18.6523 12.906 18.5984 12.7347 18.6214 12.5494C18.6456 12.3549 18.7439 12.2073 18.9163 12.1064C19.0691 12.0126 19.2415 11.987 19.4337 12.0297C19.6364 12.0643 19.7991 12.1551 19.9219 12.302C20.12 12.5242 20.3771 12.7255 20.6932 12.9059C21.0105 13.077 21.3869 13.1896 21.8222 13.2438C22.3316 13.3071 22.7477 13.2507 23.0706 13.0745C23.4039 12.8903 23.5918 12.6268 23.6345 12.2841C23.6725 11.9784 23.5913 11.7238 23.3909 11.5202C23.2009 11.3085 22.9444 11.1778 22.6214 11.1282L21.8295 11.0297C21.6257 11.0044 21.4613 10.9275 21.3362 10.7991C21.2111 10.6707 21.1583 10.5277 21.1779 10.3703C21.1975 10.2128 21.283 10.0918 21.4346 10.0072C21.5862 9.92259 21.7639 9.89296 21.9677 9.9183L22.7457 10.0151C23.0536 10.0345 23.2932 9.96088 23.4645 9.79407C23.645 9.62842 23.7525 9.40666 23.787 9.1288C23.825 8.82315 23.7253 8.56621 23.4879 8.35798C23.2504 8.14975 22.8863 8.01512 22.3954 7.95407C21.9971 7.90454 21.629 7.91519 21.291 7.98601C20.953 8.05684 20.6642 8.18552 20.4247 8.37206C20.2581 8.50182 20.0856 8.56502 19.9074 8.56166C19.7395 8.55018 19.5843 8.47446 19.4418 8.33447C19.333 8.22687 19.2941 8.08566 19.3252 7.91084C19.3656 7.73716 19.4645 7.58487 19.6219 7.45396C19.9586 7.16665 20.3897 6.95221 20.9152 6.81065C21.4407 6.66908 21.9766 6.63228 22.5231 6.70024C23.0881 6.77051 23.5761 6.92996 23.9872 7.1786C24.3984 7.42724 24.7088 7.72919 24.9186 8.08446C25.1283 8.43973 25.209 8.81187 25.1606 9.20087C25.1203 9.52504 24.9966 9.80122 24.7895 10.0294C24.5929 10.2495 24.3424 10.4111 24.038 10.5144C23.744 10.6095 23.4256 10.6357 23.0829 10.5931L23.0968 10.482C23.495 10.5315 23.8418 10.6546 24.1371 10.8512C24.4417 11.0489 24.6699 11.2936 24.8218 11.5853C24.9748 11.8677 25.03 12.1802 24.9873 12.5229C24.932 12.9675 24.7482 13.349 24.4358 13.6676C24.1327 13.9873 23.741 14.2254 23.2607 14.382C22.7815 14.5293 22.2548 14.5673 21.6806 14.4959ZM30.8243 18.8214C30.6206 18.7961 30.4579 18.7053 30.3362 18.5491C30.2227 18.4033 30.1786 18.2285 30.2039 18.0247L30.9918 11.6895C31.0921 10.959 31.3452 10.3227 31.7512 9.78067C32.1572 9.23863 32.668 8.83661 33.2837 8.57459C33.9006 8.30331 34.5703 8.2126 35.2927 8.30244C36.0244 8.39344 36.6561 8.64599 37.1877 9.0601C37.7205 9.46495 38.1173 9.97986 38.3781 10.6048C38.6483 11.231 38.7378 11.9099 38.6468 12.6416C38.5558 13.3733 38.3166 14.0113 37.9291 14.5556C37.5521 15.0918 37.0736 15.4979 36.4938 15.7738C35.9151 16.0404 35.2878 16.1317 34.6116 16.0476C34.0652 15.9796 33.5742 15.8057 33.1388 15.5258C32.7137 15.2378 32.3633 14.8792 32.0875 14.4499L31.621 18.201C31.5957 18.4047 31.5101 18.5634 31.3643 18.6769C31.2174 18.7997 31.0374 18.8479 30.8243 18.8214ZM34.4893 14.7627C34.9616 14.8214 35.3969 14.7627 35.795 14.5865C36.1943 14.401 36.5246 14.127 36.786 13.7645C37.0578 13.3939 37.2243 12.9631 37.2853 12.4722C37.3475 11.9721 37.2917 11.5137 37.1178 11.097C36.9543 10.6723 36.7011 10.3257 36.3583 10.0574C36.0166 9.77974 35.6096 9.61155 35.1372 9.55281C34.6741 9.49522 34.2383 9.55858 33.8297 9.7429C33.4316 9.91912 33.1013 10.1931 32.8387 10.5649C32.5773 10.9274 32.4155 11.3587 32.3533 11.8589C32.2923 12.3498 32.3435 12.8076 32.507 13.2323C32.6716 13.6478 32.9248 13.9944 33.2665 14.272C33.6186 14.5415 34.0262 14.7051 34.4893 14.7627ZM43.8522 17.1968C43.0834 17.1012 42.4182 16.8539 41.8565 16.4548C41.3052 16.0477 40.8939 15.5357 40.6226 14.9188C40.3618 14.2938 40.278 13.6062 40.3713 12.856C40.4657 12.0965 40.7061 11.4493 41.0925 10.9142C41.4892 10.371 41.9902 9.97244 42.5955 9.71854C43.202 9.45537 43.871 9.36928 44.6027 9.46028C45.3252 9.55013 45.9256 9.78939 46.4039 10.1781C46.8834 10.5575 47.2223 11.0464 47.4207 11.6448C47.6294 12.235 47.6883 12.896 47.5973 13.6277C47.5754 13.8037 47.4968 13.9444 47.3614 14.0498C47.2272 14.146 47.0674 14.1826 46.8822 14.1595L41.2833 13.4632L41.4216 12.3518L46.9787 13.0429L46.3608 13.3611C46.4091 12.8968 46.3677 12.4731 46.2367 12.09C46.1068 11.6977 45.893 11.3748 45.5953 11.1215C45.2976 10.8681 44.9172 10.7127 44.4541 10.6551C43.9262 10.5894 43.458 10.6488 43.0494 10.8331C42.6501 11.0186 42.3279 11.303 42.0827 11.6863C41.8387 12.0604 41.685 12.5021 41.6217 13.0115C41.5583 13.5209 41.6176 13.9892 41.7997 14.4162C41.9817 14.8433 42.2621 15.1979 42.6408 15.4802C43.0195 15.7624 43.4728 15.9363 44.0008 16.002C44.2879 16.0377 44.586 16.0231 44.895 15.958C45.2145 15.8849 45.4755 15.7904 45.678 15.6745C45.8296 15.5899 45.9841 15.5574 46.1416 15.577C46.3095 15.5884 46.4473 15.6526 46.555 15.7695C46.6952 15.928 46.7595 16.0912 46.7481 16.259C46.7366 16.4269 46.6446 16.5612 46.4722 16.6621C46.1262 16.873 45.7072 17.0278 45.2153 17.1265C44.7326 17.2263 44.2782 17.2498 43.8522 17.1968ZM51.2584 18.1179C50.6749 18.0453 50.1626 17.8922 49.7214 17.6587C49.2906 17.417 48.961 17.1174 48.7327 16.7598C48.5137 16.4034 48.4301 16.0168 48.482 15.6C48.5338 15.1832 48.6939 14.841 48.9623 14.5734C49.24 14.307 49.6138 14.0995 50.0837 13.951C50.5629 13.8037 51.1249 13.709 51.7697 13.6669C52.4156 13.6156 52.8607 13.5158 53.1048 13.3674C53.3502 13.2098 53.4907 12.9875 53.5264 12.7004C53.5632 12.404 53.4421 12.1679 53.163 11.9921C52.8851 11.807 52.5516 11.6903 52.1626 11.642C51.8384 11.6016 51.5079 11.6123 51.1711 11.6738C50.8435 11.7365 50.5611 11.8519 50.3239 12.0199C50.1688 12.1323 50.0051 12.2013 49.8326 12.2269C49.6601 12.2524 49.527 12.2265 49.4331 12.149C49.271 12.0159 49.1777 11.8586 49.1533 11.6768C49.1381 11.4962 49.1999 11.3393 49.3388 11.2061C49.6593 10.898 50.0822 10.6731 50.6077 10.5316C51.1436 10.3819 51.7172 10.3451 52.3285 10.4211C52.8472 10.4856 53.3092 10.6277 53.7145 10.8474C54.121 11.0578 54.4297 11.3361 54.6406 11.6821C54.8607 12.0292 54.942 12.4344 54.8844 12.8975C54.8176 13.4347 54.5435 13.8614 54.0621 14.1778C53.5819 14.4849 52.8851 14.6804 51.9718 14.7643C51.2217 14.8215 50.695 14.9347 50.3918 15.1039C50.0897 15.2638 49.9261 15.4833 49.9008 15.7623C49.8743 16.0506 49.9856 16.2902 50.2346 16.481C50.4836 16.6719 50.8768 16.8007 51.4139 16.8675C51.8956 16.9274 52.3089 16.9318 52.6538 16.8806C53.0092 16.8214 53.2968 16.7019 53.5166 16.5224C53.6636 16.3996 53.8233 16.3254 53.9957 16.2998C54.1682 16.2742 54.3332 16.3465 54.4908 16.5166C54.6321 16.6658 54.6924 16.8238 54.6717 16.9905C54.6509 17.1572 54.5619 17.306 54.4045 17.4369C54.0609 17.7046 53.6031 17.9063 53.0314 18.0421C52.4607 18.1686 51.8697 18.1939 51.2584 18.1179ZM59.417 19.1466C58.7779 19.0671 58.2204 18.8614 57.7444 18.5295C57.2788 18.1894 56.9306 17.737 56.6999 17.1722C56.4784 16.6086 56.4155 15.9424 56.5111 15.1736L56.9361 11.7559C56.9615 11.5522 57.0471 11.3935 57.1928 11.28C57.3491 11.1583 57.529 11.1102 57.7328 11.1355C57.9366 11.1609 58.0946 11.2511 58.207 11.4061C58.3298 11.5531 58.3786 11.7284 58.3532 11.9322L57.9282 15.3499C57.8637 15.8685 57.9074 16.3113 58.0593 16.6782C58.2123 17.0358 58.4452 17.3187 58.7579 17.5269C59.0717 17.7258 59.437 17.8512 59.8538 17.903C60.2521 17.9526 60.6138 17.9176 60.9391 17.7982C61.2735 17.6799 61.5501 17.4979 61.7688 17.2524C61.9874 17.0068 62.1174 16.7173 62.1589 16.3839L63.0342 16.4927C62.9628 17.067 62.7547 17.5678 62.41 17.9952C62.0745 18.4237 61.6447 18.7418 61.1204 18.9493C60.6053 19.158 60.0375 19.2238 59.417 19.1466ZM62.496 19.459C62.2922 19.4337 62.1289 19.3475 62.0061 19.2006C61.8937 19.0455 61.8502 18.8661 61.8756 18.6623L62.6462 12.4661C62.6726 12.253 62.7588 12.0898 62.9046 11.9762C63.0596 11.8638 63.2391 11.8203 63.4428 11.8456C63.6558 11.8721 63.8191 11.9583 63.9327 12.1041C64.0462 12.2499 64.0897 12.4293 64.0632 12.6423L63.2926 18.8386C63.2673 19.0423 63.1812 19.2056 63.0342 19.3284C62.8884 19.442 62.709 19.4855 62.496 19.459ZM69.1388 20.3416C68.3979 20.2494 67.7564 20.0003 67.2143 19.5943C66.6827 19.1802 66.2859 18.6653 66.0239 18.0496C65.7723 17.4258 65.692 16.748 65.783 16.0163C65.8763 15.2661 66.1213 14.6194 66.518 14.0762C66.9147 13.533 67.4158 13.1345 68.0211 12.8806C68.6275 12.6174 69.2966 12.5313 70.0283 12.6223C70.5747 12.6903 71.0616 12.859 71.489 13.1285C71.9175 13.3887 72.2864 13.7496 72.5958 14.2113C72.707 14.3757 72.7343 14.5342 72.6777 14.6871C72.6211 14.8399 72.5019 14.9662 72.3202 15.0659C72.179 15.1424 72.0314 15.1569 71.8775 15.1096C71.7246 15.0529 71.5914 14.9517 71.4779 14.8059C71.0839 14.2679 70.5489 13.9568 69.8728 13.8727C69.4004 13.8139 68.9698 13.8733 68.5809 14.0506C68.1932 14.2187 67.8733 14.4846 67.6212 14.8483C67.369 15.2119 67.2101 15.6577 67.1445 16.1857C67.0823 16.6858 67.1289 17.1431 67.2842 17.5574C67.4489 17.9729 67.7021 18.3195 68.0437 18.5971C68.3866 18.8654 68.8034 19.0301 69.2943 19.0912C69.6185 19.1315 69.9056 19.1296 70.1556 19.0854C70.416 19.0332 70.6585 18.9364 70.883 18.795C71.0462 18.693 71.2071 18.6472 71.3657 18.6575C71.5254 18.6586 71.6592 18.7175 71.7669 18.8344C71.9082 18.9836 71.9778 19.1428 71.9756 19.3118C71.9745 19.4715 71.9011 19.6082 71.7553 19.7217C71.0113 20.2594 70.1391 20.466 69.1388 20.3416ZM84.0176 22.1496C83.8139 22.1243 83.6506 22.0382 83.5278 21.8912C83.4154 21.7362 83.3719 21.5567 83.3972 21.353L83.8913 17.3796C83.9639 16.7961 83.8739 16.3475 83.6213 16.034C83.3699 15.7112 83.0127 15.5209 82.5496 15.4633C82.068 15.4035 81.649 15.5206 81.2926 15.8149C80.9455 16.1103 80.7397 16.5174 80.6752 17.036L79.522 16.8926C79.5969 16.2906 79.7922 15.7788 80.108 15.3572C80.4249 14.9264 80.8311 14.6101 81.3264 14.4083C81.831 14.2077 82.3844 14.1449 82.9864 14.2198C83.5143 14.2854 83.9677 14.4594 84.3464 14.7416C84.7251 15.0238 84.9974 15.4057 85.1633 15.8872C85.3395 16.3605 85.3879 16.9167 85.3084 17.5558L84.8143 21.5292C84.7889 21.733 84.7028 21.8963 84.5558 22.0191C84.4101 22.1326 84.2306 22.1761 84.0176 22.1496ZM74.751 20.9972C74.5472 20.9719 74.384 20.8857 74.2612 20.7388C74.1488 20.5837 74.1052 20.4043 74.1306 20.2005L74.8994 14.0182C74.9259 13.8051 75.0121 13.6419 75.1579 13.5283C75.3129 13.4159 75.4923 13.3724 75.6961 13.3977C75.9091 13.4242 76.0724 13.5104 76.186 13.6562C76.2995 13.802 76.343 13.9814 76.3165 14.1944L75.5477 20.3768C75.5223 20.5805 75.4362 20.7438 75.2892 20.8666C75.1434 20.9802 74.964 21.0237 74.751 20.9972ZM79.3913 21.5743C79.1875 21.5489 79.0242 21.4628 78.9014 21.3159C78.789 21.1608 78.7455 20.9814 78.7708 20.7776L79.265 16.8042C79.3376 16.2207 79.2476 15.7722 78.995 15.4586C78.7436 15.1358 78.3863 14.9456 77.9232 14.888C77.4416 14.8281 77.0226 14.9453 76.6662 15.2395C76.3098 15.5338 76.0994 15.9403 76.0349 16.459L75.1596 16.3501C75.2345 15.7481 75.4206 15.2351 75.7178 14.8112C76.0162 14.3781 76.3946 14.0583 76.8529 13.852C77.3112 13.6456 77.8136 13.5764 78.36 13.6444C78.888 13.7101 79.3413 13.884 79.72 14.1662C80.0988 14.4485 80.371 14.8303 80.5369 15.3118C80.7132 15.7852 80.7615 16.3414 80.6821 16.9805L80.1879 20.9539C80.1626 21.1576 80.0764 21.3209 79.9295 21.4437C79.7837 21.5573 79.6043 21.6008 79.3913 21.5743ZM87.3867 25.8558C87.1829 25.8304 87.0202 25.7396 86.8985 25.5834C86.785 25.4376 86.7409 25.2629 86.7662 25.0591L87.5541 18.7239C87.6544 17.9934 87.9075 17.3571 88.3135 16.815C88.7195 16.273 89.2303 15.871 89.8461 15.609C90.4629 15.3377 91.1326 15.247 91.855 15.3368C92.5867 15.4278 93.2184 15.6804 93.75 16.0945C94.2828 16.4993 94.6796 17.0142 94.9404 17.6392C95.2106 18.2653 95.3001 18.9442 95.2091 19.6759C95.1181 20.4076 94.8789 21.0456 94.4914 21.59C94.1144 22.1262 93.6359 22.5323 93.0561 22.8082C92.4775 23.0748 91.8501 23.166 91.1739 23.082C90.6275 23.014 90.1365 22.8401 89.7011 22.5602C89.276 22.2722 88.9256 21.9136 88.6498 21.4842L88.1833 25.2353C88.158 25.4391 88.0724 25.5978 87.9266 25.7113C87.7797 25.8341 87.5997 25.8823 87.3867 25.8558ZM91.0516 21.797C91.5239 21.8558 91.9592 21.797 92.3573 21.6208C92.7566 21.4354 93.0869 21.1614 93.3483 20.7989C93.6201 20.4282 93.7866 19.9975 93.8476 19.5066C93.9098 19.0064 93.854 18.5481 93.6801 18.1314C93.5166 17.7066 93.2634 17.3601 92.9206 17.0917C92.5789 16.8141 92.1719 16.6459 91.6995 16.5872C91.2364 16.5296 90.8006 16.5929 90.392 16.7773C89.9939 16.9535 89.6636 17.2275 89.401 17.5992C89.1396 17.9618 88.9778 18.3931 88.9156 18.8932C88.8546 19.3841 88.9058 19.8419 89.0693 20.2667C89.2339 20.6822 89.4871 21.0287 89.8288 21.3064C90.1809 21.5759 90.5885 21.7394 91.0516 21.797ZM100.012 24.1811C99.3355 24.097 98.7496 23.8548 98.2538 23.4546C97.7592 23.0451 97.3902 22.5336 97.1467 21.9202C96.9136 21.2987 96.8426 20.6221 96.9336 19.8904C97.0246 19.1587 97.2731 18.5218 97.6791 17.9798C98.0944 17.4389 98.6098 17.0374 99.2256 16.7754C99.8517 16.5053 100.526 16.4152 101.248 16.505C101.971 16.5949 102.598 16.8468 103.129 17.2609C103.662 17.6658 104.059 18.1807 104.32 18.8057C104.59 19.4318 104.68 20.1107 104.589 20.8424L104.047 20.775C103.956 21.5067 103.717 22.1447 103.329 22.6891C102.952 23.2253 102.474 23.6314 101.894 23.9072C101.315 24.1739 100.688 24.2651 100.012 24.1811ZM100.445 22.9652C100.917 23.024 101.353 22.9653 101.751 22.789C102.15 22.6036 102.48 22.3296 102.742 21.9671C103.004 21.5953 103.166 21.164 103.227 20.6731C103.289 20.1729 103.238 19.7151 103.073 19.2996C102.91 18.8749 102.657 18.5283 102.314 18.2599C101.972 17.9823 101.565 17.8141 101.093 17.7554C100.63 17.6978 100.194 17.7611 99.7854 17.9455C99.3873 18.1217 99.0523 18.3951 98.7805 18.7657C98.5191 19.1282 98.3573 19.5596 98.2951 20.0597C98.2341 20.5506 98.2853 21.0084 98.4488 21.4332C98.6227 21.8498 98.8805 22.197 99.2222 22.4746C99.5743 22.7441 99.9819 22.9076 100.445 22.9652ZM103.407 24.561C103.203 24.5356 103.04 24.4495 102.917 24.3025C102.804 24.1475 102.761 23.9681 102.786 23.7643L103.051 21.6387L103.498 20.1988L104.589 20.8424L104.203 23.9405C104.178 24.1443 104.087 24.307 103.931 24.4287C103.785 24.5422 103.61 24.5863 103.407 24.561ZM109.413 25.3643C108.764 25.2837 108.204 25.0589 107.733 24.6899C107.271 24.322 106.929 23.8563 106.708 23.2927C106.487 22.7198 106.42 22.086 106.507 21.3913L106.932 17.9737C106.958 17.7606 107.044 17.5973 107.19 17.4838C107.345 17.3714 107.525 17.3279 107.729 17.3532C107.942 17.3797 108.105 17.4659 108.218 17.6117C108.332 17.7575 108.375 17.9369 108.349 18.1499L107.924 21.5676C107.869 22.0121 107.912 22.4173 108.055 22.783C108.207 23.1499 108.437 23.4513 108.747 23.6873C109.056 23.9233 109.423 24.0677 109.85 24.1207C110.257 24.1714 110.627 24.1422 110.961 24.0332C111.295 23.9149 111.567 23.7324 111.777 23.4857C111.986 23.239 112.112 22.9443 112.155 22.6016L112.891 22.6932C112.817 23.2859 112.617 23.7972 112.291 24.2269C111.974 24.6577 111.568 24.974 111.073 25.1757C110.577 25.3775 110.024 25.4404 109.413 25.3643ZM113.573 28.3224C113.379 28.2982 113.225 28.2086 113.113 28.0536C113.001 27.8985 112.957 27.7191 112.983 27.5153L113.2 25.7648L112.992 25.7389C112.575 25.6871 112.281 25.5518 112.111 25.3331C111.941 25.1144 111.882 24.7967 111.933 24.3799L112.642 18.6838C112.668 18.4708 112.755 18.3075 112.9 18.1939C113.055 18.0815 113.235 18.038 113.439 18.0634C113.652 18.0898 113.815 18.176 113.928 18.3218C114.042 18.4676 114.085 18.647 114.059 18.86L113.349 24.57L113.932 24.6426C114.145 24.6691 114.308 24.7599 114.42 24.9149C114.543 25.0619 114.591 25.2418 114.565 25.4549L114.288 27.6778C114.263 27.8815 114.182 28.0454 114.044 28.1693C113.916 28.2944 113.759 28.3455 113.573 28.3224ZM119.154 26.5758C118.515 26.4963 117.957 26.2906 117.481 25.9587C117.016 25.6186 116.668 25.1662 116.437 24.6014C116.216 24.0377 116.153 23.3716 116.248 22.6028L116.673 19.1851C116.699 18.9814 116.784 18.8227 116.93 18.7092C117.086 18.5875 117.266 18.5394 117.47 18.5647C117.674 18.5901 117.832 18.6803 117.944 18.8353C118.067 18.9823 118.116 19.1576 118.09 19.3614L117.665 22.779C117.601 23.2977 117.644 23.7405 117.796 24.1074C117.949 24.465 118.182 24.7479 118.495 24.9561C118.809 25.155 119.174 25.2804 119.591 25.3322C119.989 25.3817 120.351 25.3468 120.676 25.2273C121.011 25.1091 121.287 24.9271 121.506 24.6816C121.724 24.436 121.855 24.1465 121.896 23.8131L122.771 23.9219C122.7 24.4962 122.492 24.997 122.147 25.4244C121.812 25.8529 121.382 26.171 120.857 26.3785C120.342 26.5872 119.775 26.653 119.154 26.5758ZM122.233 26.8882C122.029 26.8628 121.866 26.7767 121.743 26.6298C121.631 26.4747 121.587 26.2953 121.613 26.0915L122.383 19.8953C122.41 19.6822 122.496 19.519 122.642 19.4054C122.797 19.293 122.976 19.2495 123.18 19.2748C123.393 19.3013 123.556 19.3875 123.67 19.5333C123.783 19.6791 123.827 19.8585 123.8 20.0715L123.03 26.2678C123.004 26.4715 122.918 26.6348 122.771 26.7576C122.625 26.8712 122.446 26.9147 122.233 26.8882ZM128.624 27.7535C127.985 27.6741 127.427 27.4684 126.951 27.1364C126.486 26.7963 126.138 26.3439 125.907 25.7791C125.686 25.2155 125.623 24.5493 125.718 23.7805L126.143 20.3629C126.169 20.1591 126.254 20.0005 126.4 19.8869C126.556 19.7653 126.736 19.7171 126.94 19.7425C127.144 19.7678 127.302 19.858 127.414 20.013C127.537 20.16 127.586 20.3353 127.56 20.5391L127.135 23.9568C127.071 24.4755 127.114 24.9182 127.266 25.2851C127.419 25.6427 127.652 25.9256 127.965 26.1338C128.279 26.3327 128.644 26.4581 129.061 26.5099C129.459 26.5595 129.821 26.5245 130.146 26.4051C130.481 26.2868 130.757 26.1049 130.976 25.8593C131.194 25.6137 131.325 25.3242 131.366 24.9908L132.241 25.0997C132.17 25.6739 131.962 26.1747 131.617 26.6021C131.282 27.0307 130.852 27.3487 130.327 27.5563C129.812 27.765 129.245 27.8307 128.624 27.7535ZM131.703 28.0659C131.499 28.0406 131.336 27.9544 131.213 27.8075C131.101 27.6524 131.057 27.473 131.083 27.2693L131.853 21.073C131.88 20.86 131.966 20.6967 132.112 20.5831C132.267 20.4708 132.446 20.4272 132.65 20.4526C132.863 20.4791 133.026 20.5652 133.14 20.711C133.253 20.8568 133.297 21.0362 133.27 21.2492L132.5 27.4455C132.474 27.6493 132.388 27.8125 132.241 27.9354C132.096 28.0489 131.916 28.0924 131.703 28.0659Z" fill="#9285B0"/>
</svg>
