<svg width="56" height="56" viewBox="0 0 56 56" fill="none" xmlns="http://www.w3.org/2000/svg">
<path d="M40.7723 21.14C40.959 20.52 40.7723 20.0653 39.8897 20.0653H36.9657C36.2217 20.0653 35.8817 20.4586 35.695 20.8906C35.695 20.8906 34.2083 24.516 32.1017 26.8666C31.4217 27.5506 31.111 27.7666 30.7403 27.7666C30.555 27.7666 30.2857 27.5506 30.2857 26.9306V21.14C30.2857 20.396 30.071 20.0653 29.451 20.0653H24.8563C24.3923 20.0653 24.1123 20.4093 24.1123 20.7373C24.1123 21.4413 25.1657 21.604 25.2737 23.588V27.892C25.2737 28.8346 25.1043 29.0066 24.731 29.0066C23.7403 29.0066 21.3297 25.368 19.899 21.2026C19.6203 20.3933 19.339 20.0666 18.5923 20.0666H15.6697C14.8337 20.0666 14.667 20.46 14.667 20.892C14.667 21.668 15.6577 25.508 19.2817 30.5866C21.6977 34.0546 25.099 35.9346 28.1977 35.9346C30.055 35.9346 30.2843 35.5173 30.2843 34.7973V32.176C30.2843 31.3413 30.4617 31.1733 31.0497 31.1733C31.4817 31.1733 32.2257 31.392 33.9603 33.0626C35.9417 35.044 36.2697 35.9333 37.383 35.9333H40.3057C41.1403 35.9333 41.5577 35.516 41.3177 34.692C41.055 33.872 40.1083 32.6786 38.8523 31.2666C38.1697 30.4613 37.1497 29.5946 36.839 29.1613C36.4057 28.6026 36.531 28.356 36.839 27.86C36.8403 27.8613 40.4017 22.8453 40.7723 21.14V21.14Z" stroke="#302A3E" stroke-width="2"/>
<rect x="1" y="1" width="54" height="54" rx="27" stroke="#302A3E" stroke-width="2"/>
</svg>
