<svg width="56" height="56" viewBox="0 0 56 56" fill="none" xmlns="http://www.w3.org/2000/svg">
<path d="M42.0538 20.56C41.8954 19.9273 41.5728 19.3475 41.1186 18.8792C40.6645 18.411 40.0948 18.071 39.4671 17.8934C37.1738 17.3334 28.0004 17.3334 28.0004 17.3334C28.0004 17.3334 18.8271 17.3334 16.5338 17.9467C15.9061 18.1243 15.3364 18.4644 14.8822 18.9326C14.4281 19.4008 14.1055 19.9806 13.9471 20.6134C13.5274 22.9408 13.3221 25.3018 13.3338 27.6667C13.3188 30.0494 13.5241 32.4284 13.9471 34.7734C14.1217 35.3865 14.4515 35.9442 14.9046 36.3927C15.3577 36.8411 15.9189 37.1651 16.5338 37.3334C18.8271 37.9467 28.0004 37.9467 28.0004 37.9467C28.0004 37.9467 37.1738 37.9467 39.4671 37.3334C40.0948 37.1558 40.6645 36.8157 41.1186 36.3475C41.5728 35.8793 41.8954 35.2995 42.0538 34.6667C42.4702 32.3568 42.6755 30.0138 42.6671 27.6667C42.6821 25.284 42.4767 22.905 42.0538 20.56V20.56Z" stroke="#302A3E" stroke-width="2" stroke-linecap="round" stroke-linejoin="round"/>
<path d="M25 32.0266L32.6667 27.6666L25 23.3066V32.0266Z" stroke="#302A3E" stroke-width="2" stroke-linecap="round" stroke-linejoin="round"/>
<rect x="1" y="1" width="54" height="54" rx="27" stroke="#302A3E" stroke-width="2"/>
</svg>
